<!-- Enkavak Flag -->
<svg width="260" height="160" xmlns="http://www.w3.org/2000/svg">
  <rect width="260" height="32" fill="#ffffff" />
  <rect width="260" height="32" y="32" fill="#1900b3" />
  <rect width="260" height="32" y="64" fill="#ffffff" />
  <rect width="260" height="32" y="96" fill="#1900b3" />
  <rect width="260" height="32" y="128" fill="#ffffff" />
  <rect width="52" height="64" fill="#1900b3" />
  <path fill="#d9a633" d="M 26 7 l -6.4593 12.4402 q 1.7544 -0.7177 3.8278 -0.5582 v 21.1324 c -2.8708 0 -3.9872 0 -5.3429 0.4785 c -0.7974 -7.9745 -1.5949 -12.0415 -5.6619 -20.0159 c 0.7974 -0.4785 1.4354 -0.7974 3.0303 -0.319 c -3.9872 -3.9872 -5.5821 -5.4226 -12.6794 -5.9809 c 4.7847 5.5821 11.1643 15.7097 11.4035 31.6587 c 4.7847 -1.2759 6.3796 -1.3557 9.2504 -1.3557 v 12.5199 h 5.2632 v -12.5199 c 2.8708 0 4.4657 0.0797 9.2504 1.3557 c 0.2392 -15.949 6.6188 -26.0766 11.4035 -31.6587 c -7.0973 0.5582 -8.6922 1.9936 -12.6794 5.9809 c 1.5949 -0.4785 2.2329 -0.1595 3.0303 0.319 c -4.067 7.9745 -4.8644 12.0415 -5.6619 20.0159 c -1.3557 -0.4785 -2.4721 -0.4785 -5.3429 -0.4785 v -21.1324 q 2.0734 -0.1595 3.8278 0.5582 z" />
</svg>
